<mxfile host="65bd71144e" scale="2" border="0">
    <diagram id="lRwunp---gVruRk167lT" name="Page-1">
        <mxGraphModel dx="4494" dy="2302" grid="0" gridSize="10" guides="1" tooltips="1" connect="1" arrows="1" fold="1" page="1" pageScale="1" pageWidth="850" pageHeight="1100" math="0" shadow="0">
            <root>
                <mxCell id="0"/>
                <mxCell id="1" parent="0"/>
                <mxCell id="4" value="" style="rounded=0;whiteSpace=wrap;html=1;strokeColor=none;fillColor=#FFFFFF;" parent="1" vertex="1">
                    <mxGeometry x="-17" y="1176" width="1326" height="1336" as="geometry"/>
                </mxCell>
                <mxCell id="28" value="&lt;font color=&quot;#0077ff&quot; style=&quot;&quot;&gt;&lt;br&gt;&lt;/font&gt;" style="rounded=1;whiteSpace=wrap;html=1;strokeColor=#0077FF;fillColor=none;shadow=0;" parent="1" vertex="1">
                    <mxGeometry x="184.65" y="1596" width="22" height="248" as="geometry"/>
                </mxCell>
                <mxCell id="43" value="shai" style="text;html=1;strokeColor=none;fillColor=none;align=center;verticalAlign=middle;whiteSpace=wrap;rounded=0;fontSize=32;fontStyle=1;fontColor=#0077FF;" parent="1" vertex="1">
                    <mxGeometry y="1176" width="130" height="77.5" as="geometry"/>
                </mxCell>
                <mxCell id="89" value="&lt;font color=&quot;#0077ff&quot; style=&quot;&quot;&gt;&lt;br&gt;&lt;/font&gt;" style="rounded=1;whiteSpace=wrap;html=1;strokeColor=#0077FF;fillColor=none;shadow=0;" vertex="1" parent="1">
                    <mxGeometry x="483.26" y="1596" width="22" height="248" as="geometry"/>
                </mxCell>
                <mxCell id="100" value="" style="endArrow=classic;html=1;fontSize=14;fontColor=#0077FF;exitX=1;exitY=0.5;exitDx=0;exitDy=0;strokeColor=#0077FF;entryX=0;entryY=0.5;entryDx=0;entryDy=0;" edge="1" parent="1">
                    <mxGeometry width="50" height="50" relative="1" as="geometry">
                        <mxPoint x="206.40999999999977" y="1391" as="sourcePoint"/>
                        <mxPoint x="782.0200000000003" y="1391" as="targetPoint"/>
                    </mxGeometry>
                </mxCell>
                <mxCell id="101" value="&lt;span style=&quot;color: rgb(0, 119, 255); font-size: 14px;&quot;&gt;REGISTER (RPC)&lt;/span&gt;" style="text;html=1;strokeColor=none;fillColor=none;align=center;verticalAlign=middle;whiteSpace=wrap;rounded=0;" vertex="1" parent="1">
                    <mxGeometry x="429.26" y="1361" width="130.01" height="30" as="geometry"/>
                </mxCell>
                <mxCell id="103" value="&lt;font color=&quot;#0077ff&quot;&gt;&lt;span style=&quot;font-size: 14px;&quot;&gt;service discovery&lt;/span&gt;&lt;/font&gt;" style="text;html=1;strokeColor=none;fillColor=none;align=center;verticalAlign=middle;whiteSpace=wrap;rounded=0;" vertex="1" parent="1">
                    <mxGeometry x="435.31999999999994" y="1391" width="117.89" height="30" as="geometry"/>
                </mxCell>
                <mxCell id="106" value="" style="endArrow=classic;html=1;fontSize=14;fontColor=#0077FF;exitX=1;exitY=0.5;exitDx=0;exitDy=0;strokeColor=#0077FF;entryX=0.011;entryY=0.121;entryDx=0;entryDy=0;entryPerimeter=0;" edge="1" parent="1">
                    <mxGeometry width="50" height="50" relative="1" as="geometry">
                        <mxPoint x="206.64999999999955" y="1720" as="sourcePoint"/>
                        <mxPoint x="483.5020000000003" y="1720.0080000000003" as="targetPoint"/>
                    </mxGeometry>
                </mxCell>
                <mxCell id="107" value="&lt;span style=&quot;color: rgb(0, 119, 255); font-size: 14px;&quot;&gt;UPGRADE (LOCAL)&lt;/span&gt;" style="text;html=1;strokeColor=none;fillColor=none;align=center;verticalAlign=middle;whiteSpace=wrap;rounded=0;" vertex="1" parent="1">
                    <mxGeometry x="276.84000000000003" y="1690" width="137.37" height="30" as="geometry"/>
                </mxCell>
                <mxCell id="108" value="&lt;span style=&quot;color: rgb(0, 119, 255); font-size: 14px;&quot;&gt;upgrade release&lt;/span&gt;" style="text;html=1;strokeColor=none;fillColor=none;align=center;verticalAlign=middle;whiteSpace=wrap;rounded=0;" vertex="1" parent="1">
                    <mxGeometry x="292.77" y="1720" width="105.5" height="30" as="geometry"/>
                </mxCell>
                <mxCell id="115" value="&lt;font color=&quot;#0077ff&quot; style=&quot;&quot;&gt;&lt;br&gt;&lt;/font&gt;" style="rounded=1;whiteSpace=wrap;html=1;strokeColor=#0077FF;fillColor=none;shadow=0;" vertex="1" parent="1">
                    <mxGeometry x="483.26" y="1889" width="22" height="248" as="geometry"/>
                </mxCell>
                <mxCell id="117" value="&lt;font color=&quot;#0077ff&quot; style=&quot;&quot;&gt;&lt;br&gt;&lt;/font&gt;" style="rounded=1;whiteSpace=wrap;html=1;strokeColor=#0077FF;fillColor=none;shadow=0;" vertex="1" parent="1">
                    <mxGeometry x="781.87" y="1889" width="22" height="248" as="geometry"/>
                </mxCell>
                <mxCell id="119" value="" style="endArrow=classic;html=1;fontSize=14;fontColor=#0077FF;exitX=1;exitY=0.5;exitDx=0;exitDy=0;strokeColor=#0077FF;entryX=0.011;entryY=0.121;entryDx=0;entryDy=0;entryPerimeter=0;" edge="1" parent="1">
                    <mxGeometry width="50" height="50" relative="1" as="geometry">
                        <mxPoint x="505.01999999999975" y="2013" as="sourcePoint"/>
                        <mxPoint x="781.8720000000001" y="2013.0079999999998" as="targetPoint"/>
                    </mxGeometry>
                </mxCell>
                <mxCell id="120" value="&lt;span style=&quot;color: rgb(0, 119, 255); font-size: 14px;&quot;&gt;CHAT (RPC)&lt;/span&gt;" style="text;html=1;strokeColor=none;fillColor=none;align=center;verticalAlign=middle;whiteSpace=wrap;rounded=0;" vertex="1" parent="1">
                    <mxGeometry x="592.27" y="1983" width="103.24" height="30" as="geometry"/>
                </mxCell>
                <mxCell id="121" value="&lt;span style=&quot;color: rgb(0, 119, 255); font-size: 14px;&quot;&gt;chat gpt&lt;/span&gt;" style="text;html=1;strokeColor=none;fillColor=none;align=center;verticalAlign=middle;whiteSpace=wrap;rounded=0;" vertex="1" parent="1">
                    <mxGeometry x="587.8199999999999" y="2013" width="112.13" height="30" as="geometry"/>
                </mxCell>
                <mxCell id="141" value="&lt;font color=&quot;#0077ff&quot; style=&quot;&quot;&gt;&lt;br&gt;&lt;/font&gt;" style="rounded=1;whiteSpace=wrap;html=1;strokeColor=#0077FF;fillColor=none;shadow=0;" vertex="1" parent="1">
                    <mxGeometry x="782.02" y="2182" width="22" height="248" as="geometry"/>
                </mxCell>
                <mxCell id="142" value="&lt;font color=&quot;#0077ff&quot; style=&quot;&quot;&gt;&lt;br&gt;&lt;/font&gt;" style="rounded=1;whiteSpace=wrap;html=1;strokeColor=#0077FF;fillColor=none;shadow=0;" vertex="1" parent="1">
                    <mxGeometry x="1080.63" y="2182" width="22" height="248" as="geometry"/>
                </mxCell>
                <mxCell id="143" value="ollama/studio" style="text;html=1;strokeColor=none;fillColor=none;align=center;verticalAlign=middle;whiteSpace=wrap;rounded=0;fontStyle=1;dashed=1;fontColor=#0077FF;fontSize=14;" vertex="1" parent="1">
                    <mxGeometry x="1041.32" y="2137" width="100.63" height="45" as="geometry"/>
                </mxCell>
                <mxCell id="144" value="" style="endArrow=classic;html=1;fontSize=14;fontColor=#0077FF;exitX=1;exitY=0.5;exitDx=0;exitDy=0;strokeColor=#0077FF;entryX=0.011;entryY=0.121;entryDx=0;entryDy=0;entryPerimeter=0;" edge="1" parent="1">
                    <mxGeometry width="50" height="50" relative="1" as="geometry">
                        <mxPoint x="803.7799999999999" y="2265" as="sourcePoint"/>
                        <mxPoint x="1080.6320000000003" y="2265.008" as="targetPoint"/>
                    </mxGeometry>
                </mxCell>
                <mxCell id="145" value="&lt;span style=&quot;color: rgb(0, 119, 255); font-size: 14px;&quot;&gt;REST API&lt;/span&gt;" style="text;html=1;strokeColor=none;fillColor=none;align=center;verticalAlign=middle;whiteSpace=wrap;rounded=0;" vertex="1" parent="1">
                    <mxGeometry x="891.03" y="2235" width="103.24" height="30" as="geometry"/>
                </mxCell>
                <mxCell id="146" value="&lt;span style=&quot;color: rgb(0, 119, 255); font-size: 14px;&quot;&gt;ollama llm&lt;/span&gt;" style="text;html=1;strokeColor=none;fillColor=none;align=center;verticalAlign=middle;whiteSpace=wrap;rounded=0;" vertex="1" parent="1">
                    <mxGeometry x="886.5799999999999" y="2265" width="112.13" height="30" as="geometry"/>
                </mxCell>
                <mxCell id="147" value="" style="endArrow=classic;html=1;fontSize=14;fontColor=#0077FF;exitX=1;exitY=0.5;exitDx=0;exitDy=0;strokeColor=#0077FF;entryX=0.011;entryY=0.121;entryDx=0;entryDy=0;entryPerimeter=0;" edge="1" parent="1">
                    <mxGeometry width="50" height="50" relative="1" as="geometry">
                        <mxPoint x="803.7799999999994" y="2347" as="sourcePoint"/>
                        <mxPoint x="1080.6320000000003" y="2347.0080000000003" as="targetPoint"/>
                    </mxGeometry>
                </mxCell>
                <mxCell id="148" value="&lt;span style=&quot;color: rgb(0, 119, 255); font-size: 14px;&quot;&gt;REST API&lt;/span&gt;" style="text;html=1;strokeColor=none;fillColor=none;align=center;verticalAlign=middle;whiteSpace=wrap;rounded=0;" vertex="1" parent="1">
                    <mxGeometry x="873.9699999999999" y="2317" width="137.37" height="30" as="geometry"/>
                </mxCell>
                <mxCell id="149" value="&lt;span style=&quot;color: rgb(0, 119, 255); font-size: 14px;&quot;&gt;studio llm&lt;/span&gt;" style="text;html=1;strokeColor=none;fillColor=none;align=center;verticalAlign=middle;whiteSpace=wrap;rounded=0;" vertex="1" parent="1">
                    <mxGeometry x="889.9" y="2347" width="105.5" height="30" as="geometry"/>
                </mxCell>
                <mxCell id="157" value="&lt;font color=&quot;#0077ff&quot; style=&quot;&quot;&gt;&lt;br&gt;&lt;/font&gt;" style="rounded=1;whiteSpace=wrap;html=1;strokeColor=#0077FF;fillColor=none;shadow=0;" vertex="1" parent="1">
                    <mxGeometry x="184.65" y="2182" width="22" height="248" as="geometry"/>
                </mxCell>
                <mxCell id="158" value="aibot" style="text;html=1;strokeColor=none;fillColor=none;align=center;verticalAlign=middle;whiteSpace=wrap;rounded=0;fontStyle=1;dashed=1;fontColor=#0077FF;fontSize=14;" vertex="1" parent="1">
                    <mxGeometry x="150.04" y="2137" width="91.22" height="45" as="geometry"/>
                </mxCell>
                <mxCell id="161" value="" style="endArrow=classic;html=1;fontSize=14;fontColor=#0077FF;exitX=1;exitY=0.5;exitDx=0;exitDy=0;strokeColor=#0077FF;entryX=0.013;entryY=0.33;entryDx=0;entryDy=0;entryPerimeter=0;" edge="1" parent="1" target="141">
                    <mxGeometry width="50" height="50" relative="1" as="geometry">
                        <mxPoint x="206.40999999999977" y="2265" as="sourcePoint"/>
                        <mxPoint x="483.26200000000006" y="2265.008" as="targetPoint"/>
                    </mxGeometry>
                </mxCell>
                <mxCell id="162" value="&lt;span style=&quot;color: rgb(0, 119, 255); font-size: 14px;&quot;&gt;CHAT (HTTP)&lt;/span&gt;" style="text;html=1;strokeColor=none;fillColor=none;align=center;verticalAlign=middle;whiteSpace=wrap;rounded=0;" vertex="1" parent="1">
                    <mxGeometry x="442.64" y="2235" width="103.24" height="30" as="geometry"/>
                </mxCell>
                <mxCell id="163" value="&lt;span style=&quot;color: rgb(0, 119, 255); font-size: 14px;&quot;&gt;chat gpt&lt;/span&gt;" style="text;html=1;strokeColor=none;fillColor=none;align=center;verticalAlign=middle;whiteSpace=wrap;rounded=0;" vertex="1" parent="1">
                    <mxGeometry x="422.72" y="2265" width="143.08" height="30" as="geometry"/>
                </mxCell>
                <mxCell id="164" value="" style="endArrow=classic;html=1;fontSize=14;fontColor=#0077FF;exitX=1;exitY=0.5;exitDx=0;exitDy=0;strokeColor=#0077FF;entryX=0.044;entryY=0.661;entryDx=0;entryDy=0;entryPerimeter=0;" edge="1" parent="1" target="141">
                    <mxGeometry width="50" height="50" relative="1" as="geometry">
                        <mxPoint x="206.40999999999931" y="2347" as="sourcePoint"/>
                        <mxPoint x="776.65" y="2347" as="targetPoint"/>
                    </mxGeometry>
                </mxCell>
                <mxCell id="165" value="&lt;span style=&quot;color: rgb(0, 119, 255); font-size: 14px;&quot;&gt;FLOW (HTTP)&lt;/span&gt;" style="text;html=1;strokeColor=none;fillColor=none;align=center;verticalAlign=middle;whiteSpace=wrap;rounded=0;" vertex="1" parent="1">
                    <mxGeometry x="414.56000000000006" y="2317" width="159.39" height="30" as="geometry"/>
                </mxCell>
                <mxCell id="166" value="&lt;span style=&quot;color: rgb(0, 119, 255); font-size: 14px;&quot;&gt;workflow gpt&lt;/span&gt;" style="text;html=1;strokeColor=none;fillColor=none;align=center;verticalAlign=middle;whiteSpace=wrap;rounded=0;" vertex="1" parent="1">
                    <mxGeometry x="422.03" y="2347" width="144.46" height="30" as="geometry"/>
                </mxCell>
                <mxCell id="167" value="&lt;font color=&quot;#0077ff&quot; style=&quot;&quot;&gt;&lt;br&gt;&lt;/font&gt;" style="rounded=1;whiteSpace=wrap;html=1;strokeColor=#0077FF;fillColor=none;shadow=0;" vertex="1" parent="1">
                    <mxGeometry x="782.02" y="1303" width="22" height="248" as="geometry"/>
                </mxCell>
                <mxCell id="168" value="shdrive" style="text;html=1;strokeColor=none;fillColor=none;align=center;verticalAlign=middle;whiteSpace=wrap;rounded=0;fontStyle=1;dashed=1;fontColor=#0077FF;fontSize=14;" vertex="1" parent="1">
                    <mxGeometry x="747.41" y="1258" width="91.22" height="45" as="geometry"/>
                </mxCell>
                <mxCell id="169" value="&lt;font color=&quot;#0077ff&quot; style=&quot;&quot;&gt;&lt;br&gt;&lt;/font&gt;" style="rounded=1;whiteSpace=wrap;html=1;strokeColor=#0077FF;fillColor=none;shadow=0;" vertex="1" parent="1">
                    <mxGeometry x="184.65" y="1303" width="22" height="248" as="geometry"/>
                </mxCell>
                <mxCell id="170" value="shup" style="text;html=1;strokeColor=none;fillColor=none;align=center;verticalAlign=middle;whiteSpace=wrap;rounded=0;fontStyle=1;dashed=1;fontColor=#0077FF;fontSize=14;" vertex="1" parent="1">
                    <mxGeometry x="150.04" y="1258" width="91.22" height="45" as="geometry"/>
                </mxCell>
                <mxCell id="172" value="shai" style="text;html=1;strokeColor=none;fillColor=none;align=center;verticalAlign=middle;whiteSpace=wrap;rounded=0;fontStyle=1;dashed=1;fontColor=#0077FF;fontSize=14;" vertex="1" parent="1">
                    <mxGeometry x="448.65" y="1551" width="91.22" height="45" as="geometry"/>
                </mxCell>
                <mxCell id="173" value="" style="endArrow=classic;html=1;fontSize=14;fontColor=#0077FF;exitX=1;exitY=0.5;exitDx=0;exitDy=0;strokeColor=#0077FF;entryX=0;entryY=0.5;entryDx=0;entryDy=0;" edge="1" parent="1">
                    <mxGeometry width="50" height="50" relative="1" as="geometry">
                        <mxPoint x="206.2599999999998" y="1463" as="sourcePoint"/>
                        <mxPoint x="781.8700000000003" y="1463" as="targetPoint"/>
                    </mxGeometry>
                </mxCell>
                <mxCell id="174" value="&lt;span style=&quot;color: rgb(0, 119, 255); font-size: 14px;&quot;&gt;QUERY (RPC)&lt;/span&gt;" style="text;html=1;strokeColor=none;fillColor=none;align=center;verticalAlign=middle;whiteSpace=wrap;rounded=0;" vertex="1" parent="1">
                    <mxGeometry x="442.49" y="1433" width="103.24" height="30" as="geometry"/>
                </mxCell>
                <mxCell id="175" value="&lt;span style=&quot;color: rgb(0, 119, 255); font-size: 14px;&quot;&gt;check version&lt;/span&gt;" style="text;html=1;strokeColor=none;fillColor=none;align=center;verticalAlign=middle;whiteSpace=wrap;rounded=0;" vertex="1" parent="1">
                    <mxGeometry x="446.61" y="1463" width="95" height="30" as="geometry"/>
                </mxCell>
                <mxCell id="177" value="shai" style="text;html=1;strokeColor=none;fillColor=none;align=center;verticalAlign=middle;whiteSpace=wrap;rounded=0;fontStyle=1;dashed=1;fontColor=#0077FF;fontSize=14;" vertex="1" parent="1">
                    <mxGeometry x="448.65" y="1844" width="91.22" height="45" as="geometry"/>
                </mxCell>
                <mxCell id="178" value="shdrive" style="text;html=1;strokeColor=none;fillColor=none;align=center;verticalAlign=middle;whiteSpace=wrap;rounded=0;fontStyle=1;dashed=1;fontColor=#0077FF;fontSize=14;" vertex="1" parent="1">
                    <mxGeometry x="747.41" y="1844" width="91.22" height="45" as="geometry"/>
                </mxCell>
                <mxCell id="179" value="shup" style="text;html=1;strokeColor=none;fillColor=none;align=center;verticalAlign=middle;whiteSpace=wrap;rounded=0;fontStyle=1;dashed=1;fontColor=#0077FF;fontSize=14;" vertex="1" parent="1">
                    <mxGeometry x="150.04" y="1551" width="91.22" height="45" as="geometry"/>
                </mxCell>
                <mxCell id="180" value="shdrive" style="text;html=1;strokeColor=none;fillColor=none;align=center;verticalAlign=middle;whiteSpace=wrap;rounded=0;fontStyle=1;dashed=1;fontColor=#0077FF;fontSize=14;" vertex="1" parent="1">
                    <mxGeometry x="747.41" y="2137" width="91.22" height="45" as="geometry"/>
                </mxCell>
            </root>
        </mxGraphModel>
    </diagram>
</mxfile>